<svg xmlns="http://www.w3.org/2000/svg" width="18.393" height="24" viewBox="0 0 18.393 24"><g transform="translate(-69.992 -13.295)"><path d="M120.218,19.29a1.681,1.681,0,0,0-1.69,1.671l-.037,12.875,1.484-2.632.036-10.243a1.681,1.681,0,0,1,1.69-1.671Z" transform="translate(-46.1 -5.699)" fill="#d4e1f4"/><g transform="translate(72.092 13.295)"><path d="M121.75,13.381a.3.3,0,0,0-.209-.086h-7.036a1.979,1.979,0,0,0-1.987,1.966l-.037,13.864.593,0,.037-13.864a1.385,1.385,0,0,1,1.394-1.374h6.739v2.257a1.979,1.979,0,0,0,1.986,1.967h2.287V28.945h.593V17.816a.3.3,0,0,0-.088-.211Zm.088,2.764V14.3l3.255,3.217h-1.861a1.385,1.385,0,0,1-1.393-1.374Z" transform="translate(-112.482 -13.295)" fill="#19294b"/><path d="M268.626,52.483a.295.295,0,0,0,.294-.3.3.3,0,1,0-.3.3Z" transform="translate(-260.62 -49.979)" fill="#19294b"/><path d="M210.159,52.53a.3.3,0,1,0,0-.593H208.4a.3.3,0,1,0,0,.593Z" transform="translate(-203.372 -50.026)" fill="#19294b"/><path d="M149.681,51.937h-1.516a.3.3,0,1,0,0,.593h1.516a.3.3,0,1,0,0-.593Z" transform="translate(-146.119 -50.026)" fill="#19294b"/><path d="M187.646,102.637a.3.3,0,0,0,.3.3h3.989a.3.3,0,1,0,0-.593h-3.989A.3.3,0,0,0,187.646,102.637Z" transform="translate(-183.93 -97.937)" fill="#19294b"/><path d="M148.166,102.933h.885a.3.3,0,1,0,0-.593h-.885a.3.3,0,1,0,0,.593Z" transform="translate(-146.119 -97.937)" fill="#19294b"/><path d="M253.688,152.743h-3.875a.3.3,0,1,0,0,.593h3.875a.3.3,0,1,0,0-.593Z" transform="translate(-242.741 -145.848)" fill="#19294b"/><path d="M216.289,152.743a.3.3,0,1,0,0,.593h.564a.3.3,0,0,0,0-.593Z" transform="translate(-210.874 -145.848)" fill="#19294b"/><path d="M150.438,152.743h-2.273a.3.3,0,1,0,0,.593h2.273a.3.3,0,1,0,0-.593Z" transform="translate(-146.119 -145.848)" fill="#19294b"/><path d="M299.6,203.146h-1.487a.3.3,0,1,0,0,.593H299.6a.3.3,0,1,0,0-.593Z" transform="translate(-288.656 -193.759)" fill="#19294b"/><path d="M211.75,203.146H208.4a.3.3,0,1,0,0,.593h3.354a.3.3,0,1,0,0-.593Z" transform="translate(-203.372 -193.759)" fill="#19294b"/><path d="M150,203.146h-1.831a.3.3,0,0,0,0,.593H150a.3.3,0,0,0,0-.593Z" transform="translate(-146.119 -193.759)" fill="#19294b"/></g><path d="M85.627,230.064a3.72,3.72,0,0,0-4.578-3.24,5.088,5.088,0,0,0-8.866,3.41v.032a3.721,3.721,0,0,0,1.529,7.113H78.2l0,.977a.3.3,0,0,0,.293.3l1.472.017h0a.3.3,0,0,0,.3-.3l0-.993h4.4a3.721,3.721,0,0,0,.962-7.315Zm-5.954,8.009-.879-.01-.012-3.816a.547.547,0,0,0-.541-.554l-.885-.01,1.882-2.609a.1.1,0,0,1,.12,0l1.773,2.655-.917-.011a.548.548,0,0,0-.554.546Zm7.2-2.2a3.1,3.1,0,0,1-2.21.916h-4.4l-.008-2.477,1.42.017a.3.3,0,0,0,.244-.491l-2.083-3.119a.3.3,0,0,0-.029-.037.692.692,0,0,0-.5-.221h0a.692.692,0,0,0-.5.22.308.308,0,0,0-.024.029l-2.2,3.052a.31.31,0,0,0,.232.511l1.387.016.008,2.5H73.712a3.128,3.128,0,0,1-1.121-6.047.3.3,0,0,0,.19-.29c0-.077,0-.147,0-.214a4.5,4.5,0,0,1,7.944-2.885.3.3,0,0,0,.313.094,3.126,3.126,0,0,1,4.017,2.871.3.3,0,0,0,.238.279,3.127,3.127,0,0,1,1.588,5.276Z" transform="translate(0 -201.375)" fill="#ea7823"/></g></svg>